<mxfile host="65bd71144e" modified="2020-12-23T02:44:26.717Z" agent="5.0 (Macintosh; Intel Mac OS X 10_15_7) AppleWebKit/537.36 (KHTML, like Gecko) Code/1.52.1 Chrome/83.0.4103.122 Electron/9.3.5 Safari/537.36" etag="Jsyfnqj5X9tQ5_6knBot" version="13.10.0" type="embed">
    <diagram id="-oZIzZHeygxcKHyczaxx" name="Page-1">
        <mxGraphModel dx="680" dy="332" grid="1" gridSize="10" guides="1" tooltips="1" connect="1" arrows="1" fold="1" page="1" pageScale="1" pageWidth="850" pageHeight="1100" background="none" math="0" shadow="0">
            <root>
                <mxCell id="0"/>
                <mxCell id="1" parent="0"/>
                <mxCell id="43" value="Security group" style="fillColor=none;strokeColor=#DD3522;verticalAlign=top;fontStyle=0;fontColor=#DD3522;rounded=0;glass=0;labelBackgroundColor=none;sketch=0;" parent="1" vertex="1">
                    <mxGeometry x="290" y="420" width="380" height="160" as="geometry"/>
                </mxCell>
                <mxCell id="32" value="Region" style="points=[[0,0],[0.25,0],[0.5,0],[0.75,0],[1,0],[1,0.25],[1,0.5],[1,0.75],[1,1],[0.75,1],[0.5,1],[0.25,1],[0,1],[0,0.75],[0,0.5],[0,0.25]];outlineConnect=0;gradientColor=none;html=1;whiteSpace=wrap;fontSize=12;fontStyle=0;shape=mxgraph.aws4.group;grIcon=mxgraph.aws4.group_region;strokeColor=#147EBA;fillColor=none;verticalAlign=top;align=left;spacingLeft=30;fontColor=#147EBA;dashed=1;rounded=0;glass=0;labelBackgroundColor=none;sketch=0;" parent="1" vertex="1">
                    <mxGeometry x="510" y="399" width="170" height="363" as="geometry"/>
                </mxCell>
                <mxCell id="14" value="VPC" style="points=[[0,0],[0.25,0],[0.5,0],[0.75,0],[1,0],[1,0.25],[1,0.5],[1,0.75],[1,1],[0.75,1],[0.5,1],[0.25,1],[0,1],[0,0.75],[0,0.5],[0,0.25]];outlineConnect=0;gradientColor=none;html=1;whiteSpace=wrap;fontSize=12;fontStyle=0;shape=mxgraph.aws4.group;grIcon=mxgraph.aws4.group_vpc;strokeColor=#248814;fillColor=none;verticalAlign=top;align=left;spacingLeft=30;fontColor=#AAB7B8;dashed=0;rounded=0;glass=0;labelBackgroundColor=none;sketch=0;" parent="1" vertex="1">
                    <mxGeometry x="269.75" y="235" width="420.5" height="540" as="geometry"/>
                </mxCell>
                <mxCell id="44" value="Security group" style="fillColor=none;strokeColor=#DD3522;verticalAlign=top;fontStyle=0;fontColor=#DD3522;rounded=0;glass=0;labelBackgroundColor=none;sketch=0;" parent="1" vertex="1">
                    <mxGeometry x="290" y="589" width="380" height="161" as="geometry"/>
                </mxCell>
                <mxCell id="23" value="Public subnet" style="points=[[0,0],[0.25,0],[0.5,0],[0.75,0],[1,0],[1,0.25],[1,0.5],[1,0.75],[1,1],[0.75,1],[0.5,1],[0.25,1],[0,1],[0,0.75],[0,0.5],[0,0.25]];outlineConnect=0;gradientColor=none;html=1;whiteSpace=wrap;fontSize=12;fontStyle=0;shape=mxgraph.aws4.group;grIcon=mxgraph.aws4.group_security_group;grStroke=0;strokeColor=#248814;fillColor=#E9F3E6;verticalAlign=top;align=left;spacingLeft=30;fontColor=#248814;dashed=0;rounded=0;glass=0;labelBackgroundColor=none;sketch=0;" parent="1" vertex="1">
                    <mxGeometry x="531" y="440" width="130" height="130" as="geometry"/>
                </mxCell>
                <mxCell id="24" value="Public subnet" style="points=[[0,0],[0.25,0],[0.5,0],[0.75,0],[1,0],[1,0.25],[1,0.5],[1,0.75],[1,1],[0.75,1],[0.5,1],[0.25,1],[0,1],[0,0.75],[0,0.5],[0,0.25]];outlineConnect=0;gradientColor=none;html=1;whiteSpace=wrap;fontSize=12;fontStyle=0;shape=mxgraph.aws4.group;grIcon=mxgraph.aws4.group_security_group;grStroke=0;strokeColor=#248814;fillColor=#E9F3E6;verticalAlign=top;align=left;spacingLeft=30;fontColor=#248814;dashed=0;rounded=0;glass=0;labelBackgroundColor=none;sketch=0;" parent="1" vertex="1">
                    <mxGeometry x="299" y="440" width="130" height="130" as="geometry"/>
                </mxCell>
                <mxCell id="37" value="Region" style="points=[[0,0],[0.25,0],[0.5,0],[0.75,0],[1,0],[1,0.25],[1,0.5],[1,0.75],[1,1],[0.75,1],[0.5,1],[0.25,1],[0,1],[0,0.75],[0,0.5],[0,0.25]];outlineConnect=0;gradientColor=none;html=1;whiteSpace=wrap;fontSize=12;fontStyle=0;shape=mxgraph.aws4.group;grIcon=mxgraph.aws4.group_region;strokeColor=#147EBA;fillColor=none;verticalAlign=top;align=left;spacingLeft=30;fontColor=#147EBA;dashed=1;rounded=0;glass=0;labelBackgroundColor=none;sketch=0;" parent="1" vertex="1">
                    <mxGeometry x="280" y="399" width="170" height="360" as="geometry"/>
                </mxCell>
                <mxCell id="12" value="" style="rounded=0;whiteSpace=wrap;html=1;labelBackgroundColor=none;fillColor=none;strokeColor=#FF0000;sketch=0;glass=0;" parent="1" vertex="1">
                    <mxGeometry x="414" y="252" width="131" height="118" as="geometry"/>
                </mxCell>
                <mxCell id="4" style="edgeStyle=orthogonalEdgeStyle;rounded=0;orthogonalLoop=1;jettySize=auto;html=1;" parent="1" edge="1">
                    <mxGeometry relative="1" as="geometry">
                        <mxPoint x="480" y="120" as="targetPoint"/>
                        <Array as="points">
                            <mxPoint x="480" y="140"/>
                        </Array>
                        <mxPoint x="480" y="76.87144369326631" as="sourcePoint"/>
                    </mxGeometry>
                </mxCell>
                <mxCell id="3" value="devices" style="outlineConnect=0;gradientColor=none;fontColor=#545B64;strokeColor=none;fillColor=#879196;dashed=0;verticalLabelPosition=bottom;verticalAlign=top;align=center;html=1;fontSize=12;fontStyle=0;aspect=fixed;shape=mxgraph.aws4.illustration_devices;pointerEvents=1" parent="1" vertex="1">
                    <mxGeometry x="430" y="4" width="100" height="73" as="geometry"/>
                </mxCell>
                <mxCell id="5" value="" style="outlineConnect=0;fontColor=#232F3E;gradientColor=#945DF2;gradientDirection=north;fillColor=#5A30B5;strokeColor=#ffffff;dashed=0;verticalLabelPosition=bottom;verticalAlign=top;align=center;html=1;fontSize=12;fontStyle=0;aspect=fixed;shape=mxgraph.aws4.resourceIcon;resIcon=mxgraph.aws4.route_53;" parent="1" vertex="1">
                    <mxGeometry x="442" y="124" width="78" height="78" as="geometry"/>
                </mxCell>
                <mxCell id="7" value="Route53" style="rounded=0;whiteSpace=wrap;html=1;labelBackgroundColor=none;fillColor=none;strokeColor=none;" parent="1" vertex="1">
                    <mxGeometry x="441.5" y="185" width="80" height="20" as="geometry"/>
                </mxCell>
                <mxCell id="9" value="HTTPS" style="rounded=0;whiteSpace=wrap;html=1;labelBackgroundColor=none;fillColor=none;strokeColor=none;" parent="1" vertex="1">
                    <mxGeometry x="473" y="216" width="80" height="20" as="geometry"/>
                </mxCell>
                <mxCell id="10" value="" style="outlineConnect=0;fontColor=#232F3E;gradientColor=#945DF2;gradientDirection=north;fillColor=#5A30B5;strokeColor=#ffffff;dashed=0;verticalLabelPosition=bottom;verticalAlign=top;align=center;html=1;fontSize=12;fontStyle=0;aspect=fixed;shape=mxgraph.aws4.resourceIcon;resIcon=mxgraph.aws4.elastic_load_balancing;labelBackgroundColor=none;" parent="1" vertex="1">
                    <mxGeometry x="441" y="280" width="79" height="79" as="geometry"/>
                </mxCell>
                <mxCell id="11" value="ALB" style="rounded=0;whiteSpace=wrap;html=1;labelBackgroundColor=none;fillColor=none;strokeColor=none;" parent="1" vertex="1">
                    <mxGeometry x="420" y="284" width="80" height="20" as="geometry"/>
                </mxCell>
                <mxCell id="13" value="&lt;font color=&quot;#ff0000&quot;&gt;Security group&lt;/font&gt;" style="rounded=0;whiteSpace=wrap;html=1;labelBackgroundColor=none;fillColor=none;strokeColor=none;" parent="1" vertex="1">
                    <mxGeometry x="428" y="252" width="103" height="20" as="geometry"/>
                </mxCell>
                <mxCell id="25" value="Private subnet" style="points=[[0,0],[0.25,0],[0.5,0],[0.75,0],[1,0],[1,0.25],[1,0.5],[1,0.75],[1,1],[0.75,1],[0.5,1],[0.25,1],[0,1],[0,0.75],[0,0.5],[0,0.25]];outlineConnect=0;gradientColor=none;html=1;whiteSpace=wrap;fontSize=12;fontStyle=0;shape=mxgraph.aws4.group;grIcon=mxgraph.aws4.group_security_group;grStroke=0;strokeColor=#147EBA;fillColor=#E6F2F8;verticalAlign=top;align=left;spacingLeft=30;fontColor=#147EBA;dashed=0;rounded=0;glass=0;labelBackgroundColor=none;sketch=0;" parent="1" vertex="1">
                    <mxGeometry x="530" y="600" width="130" height="130" as="geometry"/>
                </mxCell>
                <mxCell id="26" value="Private subnet" style="points=[[0,0],[0.25,0],[0.5,0],[0.75,0],[1,0],[1,0.25],[1,0.5],[1,0.75],[1,1],[0.75,1],[0.5,1],[0.25,1],[0,1],[0,0.75],[0,0.5],[0,0.25]];outlineConnect=0;gradientColor=none;html=1;whiteSpace=wrap;fontSize=12;fontStyle=0;shape=mxgraph.aws4.group;grIcon=mxgraph.aws4.group_security_group;grStroke=0;strokeColor=#147EBA;fillColor=#E6F2F8;verticalAlign=top;align=left;spacingLeft=30;fontColor=#147EBA;dashed=0;rounded=0;glass=0;labelBackgroundColor=none;sketch=0;" parent="1" vertex="1">
                    <mxGeometry x="300" y="600" width="130" height="130" as="geometry"/>
                </mxCell>
                <mxCell id="30" value="&lt;font color=&quot;#333333&quot;&gt;10.0.10.0/24&lt;/font&gt;" style="rounded=0;whiteSpace=wrap;html=1;labelBackgroundColor=none;fillColor=none;strokeColor=none;" parent="1" vertex="1">
                    <mxGeometry x="299" y="710" width="80" height="20" as="geometry"/>
                </mxCell>
                <mxCell id="34" value="&lt;font color=&quot;#007fff&quot;&gt;(ap-northeast-1c)&lt;/font&gt;" style="rounded=0;whiteSpace=wrap;html=1;labelBackgroundColor=none;fillColor=none;strokeColor=none;" parent="1" vertex="1">
                    <mxGeometry x="577" y="398" width="103" height="20" as="geometry"/>
                </mxCell>
                <mxCell id="39" value="&lt;font color=&quot;#007fff&quot;&gt;(ap-northeast-1a)&lt;/font&gt;" style="rounded=0;whiteSpace=wrap;html=1;labelBackgroundColor=none;fillColor=none;strokeColor=none;" parent="1" vertex="1">
                    <mxGeometry x="350" y="399" width="100" height="23" as="geometry"/>
                </mxCell>
                <mxCell id="42" value="&lt;font color=&quot;#333333&quot;&gt;10.0.11.0/24&lt;/font&gt;" style="rounded=0;whiteSpace=wrap;html=1;labelBackgroundColor=none;fillColor=none;strokeColor=none;" parent="1" vertex="1">
                    <mxGeometry x="530" y="710" width="80" height="20" as="geometry"/>
                </mxCell>
                <mxCell id="46" value="" style="outlineConnect=0;fontColor=#232F3E;gradientColor=#4D72F3;gradientDirection=north;fillColor=#3334B9;strokeColor=#ffffff;dashed=0;verticalLabelPosition=bottom;verticalAlign=top;align=center;html=1;fontSize=12;fontStyle=0;aspect=fixed;shape=mxgraph.aws4.resourceIcon;resIcon=mxgraph.aws4.rds;rounded=0;glass=0;labelBackgroundColor=none;sketch=0;" parent="1" vertex="1">
                    <mxGeometry x="327" y="630" width="78" height="78" as="geometry"/>
                </mxCell>
                <mxCell id="47" value="RDS" style="rounded=0;whiteSpace=wrap;html=1;labelBackgroundColor=none;fillColor=none;strokeColor=none;" parent="1" vertex="1">
                    <mxGeometry x="325" y="689" width="80" height="20" as="geometry"/>
                </mxCell>
                <mxCell id="48" value="" style="outlineConnect=0;fontColor=#232F3E;gradientColor=#F78E04;gradientDirection=north;fillColor=#D05C17;strokeColor=#ffffff;dashed=0;verticalLabelPosition=bottom;verticalAlign=top;align=center;html=1;fontSize=12;fontStyle=0;aspect=fixed;shape=mxgraph.aws4.resourceIcon;resIcon=mxgraph.aws4.ec2;rounded=0;glass=0;labelBackgroundColor=none;sketch=0;" parent="1" vertex="1">
                    <mxGeometry x="325" y="472" width="78" height="78" as="geometry"/>
                </mxCell>
                <mxCell id="49" value="EC2" style="rounded=0;whiteSpace=wrap;html=1;labelBackgroundColor=none;fillColor=none;strokeColor=none;" parent="1" vertex="1">
                    <mxGeometry x="345" y="530" width="80" height="20" as="geometry"/>
                </mxCell>
                <mxCell id="50" value="HTTP or HTTPS" style="rounded=0;whiteSpace=wrap;html=1;labelBackgroundColor=none;fillColor=none;strokeColor=none;" parent="1" vertex="1">
                    <mxGeometry x="495" y="93" width="120" height="20" as="geometry"/>
                </mxCell>
                <mxCell id="54" value="" style="endArrow=classic;html=1;" parent="1" edge="1">
                    <mxGeometry width="50" height="50" relative="1" as="geometry">
                        <mxPoint x="480" y="202" as="sourcePoint"/>
                        <mxPoint x="480" y="280" as="targetPoint"/>
                    </mxGeometry>
                </mxCell>
                <mxCell id="55" value="&lt;font color=&quot;#333333&quot;&gt;10.0.1.0/24&lt;/font&gt;" style="rounded=0;whiteSpace=wrap;html=1;labelBackgroundColor=none;fillColor=none;strokeColor=none;" parent="1" vertex="1">
                    <mxGeometry x="527" y="548.5" width="80" height="20" as="geometry"/>
                </mxCell>
                <mxCell id="56" value="&lt;font color=&quot;#333333&quot;&gt;10.0.0.0/24&lt;/font&gt;" style="rounded=0;whiteSpace=wrap;html=1;labelBackgroundColor=none;fillColor=none;strokeColor=none;" parent="1" vertex="1">
                    <mxGeometry x="289" y="551.5" width="80" height="20" as="geometry"/>
                </mxCell>
                <mxCell id="59" value="" style="endArrow=none;html=1;" parent="1" edge="1">
                    <mxGeometry width="50" height="50" relative="1" as="geometry">
                        <mxPoint x="480" y="380" as="sourcePoint"/>
                        <mxPoint x="480" y="370" as="targetPoint"/>
                    </mxGeometry>
                </mxCell>
                <mxCell id="65" value="" style="endArrow=none;html=1;" parent="1" edge="1">
                    <mxGeometry width="50" height="50" relative="1" as="geometry">
                        <mxPoint x="600" y="380" as="sourcePoint"/>
                        <mxPoint x="480" y="380" as="targetPoint"/>
                    </mxGeometry>
                </mxCell>
                <mxCell id="66" value="" style="endArrow=none;html=1;" parent="1" edge="1">
                    <mxGeometry width="50" height="50" relative="1" as="geometry">
                        <mxPoint x="480.5" y="380" as="sourcePoint"/>
                        <mxPoint x="360" y="380" as="targetPoint"/>
                    </mxGeometry>
                </mxCell>
                <mxCell id="69" value="" style="endArrow=classic;html=1;entryX=0.5;entryY=0;entryDx=0;entryDy=0;" parent="1" edge="1">
                    <mxGeometry width="50" height="50" relative="1" as="geometry">
                        <mxPoint x="600" y="380" as="sourcePoint"/>
                        <mxPoint x="599.5" y="439.5" as="targetPoint"/>
                    </mxGeometry>
                </mxCell>
                <mxCell id="70" value="" style="endArrow=classic;html=1;entryX=0.5;entryY=0;entryDx=0;entryDy=0;" parent="1" edge="1">
                    <mxGeometry width="50" height="50" relative="1" as="geometry">
                        <mxPoint x="360.5" y="380.5" as="sourcePoint"/>
                        <mxPoint x="360" y="440" as="targetPoint"/>
                    </mxGeometry>
                </mxCell>
                <mxCell id="72" value="" style="endArrow=classic;html=1;strokeColor=#000000;" parent="1" edge="1">
                    <mxGeometry width="50" height="50" relative="1" as="geometry">
                        <mxPoint x="362" y="550" as="sourcePoint"/>
                        <mxPoint x="362" y="600" as="targetPoint"/>
                    </mxGeometry>
                </mxCell>
                <mxCell id="73" value="HTTP" style="rounded=0;whiteSpace=wrap;html=1;labelBackgroundColor=none;fillColor=none;strokeColor=none;" parent="1" vertex="1">
                    <mxGeometry x="334" y="359" width="80" height="20" as="geometry"/>
                </mxCell>
            </root>
        </mxGraphModel>
    </diagram>
</mxfile>